<svg xmlns="http://www.w3.org/2000/svg" viewBox="0 0 16 16" shape-rendering="crispEdges" width="512" height="512"><rect width="100%" height="100%" fill="#0000ff"/><rect width="1" height="1" x="4" y="4" fill="#ffff00"/><rect width="1" height="1" x="4" y="5" fill="#0000ff"/><rect width="1" height="1" x="4" y="6" fill="#ffffff"/><rect width="1" height="1" x="4" y="7" fill="#ffffff"/><rect width="1" height="1" x="4" y="8" fill="#ffffff"/><rect width="1" height="1" x="4" y="9" fill="#ffffff"/><rect width="1" height="1" x="4" y="10" fill="#0000ff"/><rect width="1" height="1" x="4" y="11" fill="#ffffff"/><rect width="1" height="1" x="4" y="14" fill="#ffffff"/><rect width="1" height="1" x="4" y="15" fill="#ffffff"/><rect width="1" height="1" x="5" y="4" fill="#ffffff"/><rect width="1" height="1" x="5" y="5" fill="#00ff00"/><rect width="1" height="1" x="5" y="6" fill="#ffffff"/><rect width="1" height="1" x="5" y="7" fill="#000000"/><rect width="1" height="1" x="5" y="8" fill="#ffffff"/><rect width="1" height="1" x="5" y="9" fill="#ffffff"/><rect width="1" height="1" x="5" y="10" fill="#00ff00"/><rect width="1" height="1" x="5" y="11" fill="#ffffff"/><rect width="1" height="1" x="5" y="14" fill="#000000"/><rect width="1" height="1" x="5" y="15" fill="#ffffff"/><rect width="1" height="1" x="6" y="4" fill="#ffffff"/><rect width="1" height="1" x="6" y="5" fill="#ffffff"/><rect width="1" height="1" x="6" y="6" fill="#0000ff"/><rect width="1" height="1" x="6" y="7" fill="#ffffff"/><rect width="1" height="1" x="6" y="8" fill="#ffffff"/><rect width="1" height="1" x="6" y="9" fill="#ffffff"/><rect width="1" height="1" x="6" y="10" fill="#ffffff"/><rect width="1" height="1" x="6" y="11" fill="#0000ff"/><rect width="1" height="1" x="6" y="14" fill="#ffffff"/><rect width="1" height="1" x="6" y="15" fill="#ffffff"/><rect width="1" height="1" x="7" y="4" fill="#ffffff"/><rect width="1" height="1" x="7" y="5" fill="#ffffff"/><rect width="1" height="1" x="7" y="6" fill="#00ff00"/><rect width="1" height="1" x="7" y="7" fill="#ffffff"/><rect width="1" height="1" x="7" y="8" fill="#000000"/><rect width="1" height="1" x="7" y="9" fill="#ffffff"/><rect width="1" height="1" x="7" y="10" fill="#ffffff"/><rect width="1" height="1" x="7" y="11" fill="#00ff00"/><rect width="1" height="1" x="7" y="14" fill="#ffffff"/><rect width="1" height="1" x="7" y="15" fill="#000000"/><rect width="1" height="1" x="8" y="4" fill="#ffffff"/><rect width="1" height="1" x="8" y="5" fill="#ffffff"/><rect width="1" height="1" x="8" y="6" fill="#ffffff"/><rect width="1" height="1" x="8" y="7" fill="#0000ff"/><rect width="1" height="1" x="8" y="8" fill="#ffffff"/><rect width="1" height="1" x="8" y="9" fill="#ffffff"/><rect width="1" height="1" x="8" y="10" fill="#ffffff"/><rect width="1" height="1" x="8" y="11" fill="#ffffff"/><rect width="1" height="1" x="8" y="14" fill="#0000ff"/><rect width="1" height="1" x="8" y="15" fill="#ffffff"/><rect width="1" height="1" x="9" y="4" fill="#000000"/><rect width="1" height="1" x="9" y="5" fill="#ffffff"/><rect width="1" height="1" x="9" y="6" fill="#ffffff"/><rect width="1" height="1" x="9" y="7" fill="#00ff00"/><rect width="1" height="1" x="9" y="8" fill="#ffffff"/><rect width="1" height="1" x="9" y="9" fill="#000000"/><rect width="1" height="1" x="9" y="10" fill="#ffffff"/><rect width="1" height="1" x="9" y="11" fill="#ffffff"/><rect width="1" height="1" x="9" y="14" fill="#00ff00"/><rect width="1" height="1" x="9" y="15" fill="#ffffff"/><rect width="1" height="1" x="10" y="4" fill="#ffffff"/><rect width="1" height="1" x="10" y="5" fill="#ffffff"/><rect width="1" height="1" x="10" y="6" fill="#ffffff"/><rect width="1" height="1" x="10" y="7" fill="#ffffff"/><rect width="1" height="1" x="10" y="8" fill="#0000ff"/><rect width="1" height="1" x="10" y="9" fill="#ffffff"/><rect width="1" height="1" x="10" y="10" fill="#ffffff"/><rect width="1" height="1" x="10" y="11" fill="#ffffff"/><rect width="1" height="1" x="10" y="14" fill="#ffffff"/><rect width="1" height="1" x="10" y="15" fill="#0000ff"/><rect width="1" height="1" x="11" y="4" fill="#ffffff"/><rect width="1" height="1" x="11" y="5" fill="#000000"/><rect width="1" height="1" x="11" y="6" fill="#ffffff"/><rect width="1" height="1" x="11" y="7" fill="#ffffff"/><rect width="1" height="1" x="11" y="8" fill="#00ff00"/><rect width="1" height="1" x="11" y="9" fill="#ffffff"/><rect width="1" height="1" x="11" y="10" fill="#000000"/><rect width="1" height="1" x="11" y="11" fill="#ffffff"/><rect width="1" height="1" x="11" y="14" fill="#ffffff"/><rect width="1" height="1" x="11" y="15" fill="#00ffff"/></svg>