<svg xmlns="http://www.w3.org/2000/svg" viewBox="0 0 8 8" shape-rendering="crispEdges" width="512" height="512"><rect width="100%" height="100%" fill="#0300ff"/><rect width="1" height="1" x="2" y="2" fill="#00ff03"/><rect width="1" height="1" x="2" y="3" fill="#ffffff"/><rect width="1" height="1" x="2" y="4" fill="#fe0000"/><rect width="1" height="1" x="2" y="5" fill="#00ff03"/><rect width="1" height="1" x="2" y="7" fill="#00ff03"/><rect width="1" height="1" x="3" y="2" fill="#00ff03"/><rect width="1" height="1" x="3" y="3" fill="#000000"/><rect width="1" height="1" x="3" y="4" fill="#fe0000"/><rect width="1" height="1" x="3" y="5" fill="#00ff03"/><rect width="1" height="1" x="3" y="7" fill="#00ff03"/><rect width="1" height="1" x="4" y="2" fill="#00ff03"/><rect width="1" height="1" x="4" y="3" fill="#ffffff"/><rect width="1" height="1" x="4" y="4" fill="#fe0000"/><rect width="1" height="1" x="4" y="5" fill="#00ff03"/><rect width="1" height="1" x="4" y="7" fill="#00ff03"/><rect width="1" height="1" x="5" y="2" fill="#00ff03"/><rect width="1" height="1" x="5" y="3" fill="#000000"/><rect width="1" height="1" x="5" y="4" fill="#fe0000"/><rect width="1" height="1" x="5" y="5" fill="#00ff03"/><rect width="1" height="1" x="5" y="7" fill="#00ff03"/></svg>